<svg width="136" height="16" viewBox="0 0 136 16" fill="none" xmlns="http://www.w3.org/2000/svg">
<g clip-path="url(#clip0_938_1190)">
<path d="M45.8518 0.916992V15.104H43.567V8.68882H36.5426V15.104H34.2578V0.916992H36.5426V6.50043H43.567V0.916992H45.8518Z" fill="#1E2D3C"/>
<mask id="mask0_938_1190" style="mask-type:luminance" maskUnits="userSpaceOnUse" x="0" y="0" width="136" height="16">
<path d="M136 0.00341797H0V15.997H136V0.00341797Z" fill="white"/>
</mask>
<g mask="url(#mask0_938_1190)">
<path d="M65.0759 13.1612C64.4052 13.1723 63.7395 13.0452 63.1197 12.788C62.5 12.5308 61.9396 12.1488 61.473 11.6657C61.0064 11.1826 60.6437 10.6087 60.4072 9.97938C60.1708 9.35011 60.0656 8.67889 60.0983 8.00725C60.0666 7.33616 60.1724 6.66568 60.4093 6.03722C60.6462 5.40875 61.0091 4.83565 61.4756 4.35329C61.942 3.87094 62.5022 3.48958 63.1214 3.23276C63.7407 2.97594 64.4058 2.84911 65.0759 2.86012C65.6124 2.87598 66.1418 2.98676 66.6399 3.18735L67.6599 1.25121C66.8528 0.889241 65.9804 0.696676 65.0963 0.685368C64.1309 0.660996 63.1706 0.833775 62.274 1.19319C61.3773 1.55261 60.5629 2.09116 59.8804 2.77607C59.1978 3.46098 58.6614 4.27794 58.3038 5.17725C57.9461 6.07656 57.7747 7.03941 57.7999 8.00725C57.7718 8.97677 57.9412 9.94185 58.2976 10.8436C58.654 11.7453 59.19 12.5647 59.8728 13.2518C60.5556 13.939 61.371 14.4794 62.269 14.84C63.1671 15.2007 64.1291 15.3741 65.0963 15.3496C65.9839 15.3254 66.8578 15.1237 67.6667 14.7565L66.6399 12.8408C66.1344 13.0393 65.5982 13.1478 65.0555 13.1612" fill="#1E2D3C"/>
</g>
<path d="M96.4447 0.916992V15.104H93.7383L87.1559 4.48249V15.104H84.8711V0.916992H87.5639L94.1599 11.5453V6.85494V0.916992H96.4447Z" fill="#F05323"/>
<path d="M107.113 12.9156V15.104H98.6543V0.916992H100.939V12.9156H107.113Z" fill="#F05323"/>
<path d="M110.779 0.916992H108.494V15.1108H110.779V0.916992Z" fill="#F05323"/>
<path d="M126.76 0.916992V15.104H136.001V12.9156H129.045V8.68882H134.75V6.50043H129.045V3.10537H135.804V0.916992H126.76Z" fill="#F05323"/>
<mask id="mask1_938_1190" style="mask-type:luminance" maskUnits="userSpaceOnUse" x="0" y="0" width="136" height="16">
<path d="M136 0.00341797H0V15.997H136V0.00341797Z" fill="white"/>
</mask>
<g mask="url(#mask1_938_1190)">
<path d="M81.11 8.00022C81.1113 9.14391 80.7743 10.2623 80.1415 11.2139C79.5087 12.1655 78.6086 12.9076 77.555 13.3462C76.5015 13.7848 75.3418 13.9002 74.2228 13.6779C73.1038 13.4556 72.0757 12.9056 71.2685 12.0973C70.4614 11.2891 69.9115 10.259 69.6885 9.13739C69.4654 8.01577 69.5792 6.85303 70.0155 5.79626C70.4517 4.7395 71.1908 3.8362 72.1392 3.20066C73.0877 2.56512 74.2028 2.22589 75.3436 2.22589C76.8718 2.22589 78.3374 2.83403 79.4186 3.91674C80.4999 4.99944 81.1082 6.46814 81.11 8.00022ZM75.3436 0.00341797C73.766 0.00341797 72.2239 0.472422 70.9121 1.35112C69.6004 2.22982 68.5781 3.47875 67.9744 4.93997C67.3706 6.4012 67.2127 8.00909 67.5205 9.56032C67.8282 11.1115 68.5879 12.5364 69.7034 13.6548C70.8189 14.7732 72.2402 15.5348 73.7875 15.8434C75.3347 16.1519 76.9385 15.9936 78.396 15.3883C79.8535 14.783 81.0993 13.7581 81.9757 12.443C82.8522 11.1279 83.32 9.58183 83.32 8.00022C83.3182 5.87989 82.4772 3.84692 80.9818 2.34762C79.4863 0.84832 77.4585 0.00522327 75.3436 0.00341797Z" fill="#F05323"/>
</g>
<path d="M76.3308 8.97525H70.918V8.74346L74.5832 7.22318L76.12 3.4668H76.3308V8.97525Z" fill="#1E2D3C"/>
<mask id="mask2_938_1190" style="mask-type:luminance" maskUnits="userSpaceOnUse" x="0" y="0" width="136" height="16">
<path d="M136 0.00341797H0V15.997H136V0.00341797Z" fill="white"/>
</mask>
<g mask="url(#mask2_938_1190)">
<path d="M7.6568 10.7272C7.6568 9.36374 6.9768 8.55929 5.1884 8.55929H2.2848V12.9156H5.066C6.8272 12.9156 7.6568 12.0634 7.6568 10.7272ZM9.9824 10.7272C9.9824 13.4542 8.2416 15.0835 5.1476 15.0835H0V0.916992H8.9488V3.10537H2.2848V6.4459H5.2904C8.4048 6.4459 9.9824 8.02753 9.9824 10.7477" fill="#1E2D3C"/>
<path d="M30.4104 7.64557C30.984 7.4081 31.4727 7.00246 31.8124 6.48181C32.1522 5.96116 32.3272 5.34977 32.3144 4.72773C32.3144 2.35528 30.2268 0.685015 27.2348 0.685015C26.5453 0.677335 25.8582 0.769175 25.1948 0.957711V3.3438C25.8005 2.98572 26.499 2.81717 27.2008 2.85976C29.0436 2.85976 30.016 3.73239 30.016 5.00724C30.016 6.28209 29.0572 6.82067 27.2552 6.82067H25.9292V8.86588H27.6836C29.7644 8.86588 30.4512 9.69761 30.4512 10.9111C30.4512 12.2746 29.4584 13.2017 27.4184 13.2017C26.5568 13.2355 25.6995 13.065 24.916 12.7041V15.0765C25.7465 15.2918 26.6015 15.3973 27.4592 15.3901C30.6756 15.3901 32.7768 13.7471 32.7768 11.1088C32.804 10.3603 32.588 9.62318 32.1612 9.00841C31.7344 8.39365 31.12 7.93451 30.4104 7.70011" fill="#1E2D3C"/>
</g>
<path d="M50.068 3.10537V6.50043H55.7732V8.68882H50.068V12.9156H57.0244V15.104H47.7832V0.916992H56.8272V3.10537H50.068Z" fill="#1E2D3C"/>
<path d="M124.556 0.916992V15.104H121.843L115.267 4.48249V15.104H112.982V0.916992H115.668L122.271 11.5453V6.85494V0.916992H124.556Z" fill="#F05323"/>
<path d="M11.6016 0.916992V15.104H14.308L20.8904 4.48249V15.104H23.1752V0.916992H20.4892L13.8864 11.5453V6.85494V0.916992H11.6016Z" fill="#1E2D3C"/>
</g>
<defs>
<clipPath id="clip0_938_1190">
<rect width="136" height="16" fill="white"/>
</clipPath>
</defs>
</svg>
