<svg width="58" height="57" viewBox="0 0 58 57" fill="none" xmlns="http://www.w3.org/2000/svg">
<g id="Frame 1499">
<path id="Ellipse 93 (Stroke)" fill-rule="evenodd" clip-rule="evenodd" d="M29.3113 55C44.1678 55 56.188 43.1228 56.188 28.5C56.188 13.8772 44.1678 2 29.3113 2C14.4548 2 2.43457 13.8772 2.43457 28.5C2.43457 43.1228 14.4548 55 29.3113 55ZM29.3113 56C44.7072 56 57.188 43.6878 57.188 28.5C57.188 13.3122 44.7072 1 29.3113 1C13.9154 1 1.43457 13.3122 1.43457 28.5C1.43457 43.6878 13.9154 56 29.3113 56Z" fill="#292929" stroke="black"/>
<path id="telegram" d="M15.7186 27.0404C22.4295 24.0769 26.9045 22.1231 29.1435 21.1792C35.5365 18.484 36.8649 18.0158 37.7307 18.0001C37.9212 17.9969 38.347 18.0448 38.6228 18.2716C38.8557 18.4631 38.9197 18.7219 38.9504 18.9035C38.9811 19.0851 39.0192 19.4988 38.9889 19.822C38.6424 23.5116 37.1434 32.4651 36.3808 36.5974C36.0581 38.3459 35.4227 38.9322 34.8076 38.9896C33.4707 39.1143 32.4556 38.0941 31.1608 37.2338C29.1348 35.8877 27.9901 35.0497 26.0235 33.736C23.7507 32.2179 25.224 31.3835 26.5193 30.0199C26.8583 29.6631 32.7484 24.2327 32.8624 23.7401C32.8767 23.6785 32.8899 23.4489 32.7553 23.3276C32.6207 23.2063 32.422 23.2478 32.2787 23.2808C32.0754 23.3275 28.8388 25.4959 22.5686 29.786C21.6499 30.4255 20.8177 30.737 20.0721 30.7207C19.2502 30.7027 17.6691 30.2496 16.4937 29.8624C15.0521 29.3874 13.9063 29.1363 14.0061 28.3296C14.058 27.9094 14.6289 27.4797 15.7186 27.0404Z" fill="#292929"/>
</g>
</svg>
