<svg width="58" height="57" viewBox="0 0 58 57" fill="none" xmlns="http://www.w3.org/2000/svg">
<g id="Frame 1499">
<path id="Ellipse 93 (Stroke)" fill-rule="evenodd" clip-rule="evenodd" d="M29.3113 55C44.1678 55 56.188 43.1228 56.188 28.5C56.188 13.8772 44.1678 2 29.3113 2C14.4548 2 2.43457 13.8772 2.43457 28.5C2.43457 43.1228 14.4548 55 29.3113 55ZM29.3113 56C44.7072 56 57.188 43.6878 57.188 28.5C57.188 13.3122 44.7072 1 29.3113 1C13.9154 1 1.43457 13.3122 1.43457 28.5C1.43457 43.6878 13.9154 56 29.3113 56Z" fill="#292929" stroke="black"/>
<path id="Vector" d="M30.7543 37.498C21.2205 37.498 15.7845 31.063 15.5615 20.338H20.3563C20.5096 28.203 24.0221 31.5305 26.8098 32.218V20.338H31.3119V27.1167C34.0577 26.828 36.9569 23.7342 37.9326 20.3242H42.4207C42.0548 22.0894 41.3238 23.7612 40.2733 25.2351C39.2229 26.709 37.8757 27.9534 36.3157 28.8905C38.0565 29.7452 39.5939 30.9543 40.8264 32.438C42.0589 33.9216 42.9586 35.6462 43.4661 37.498H38.518C37.4587 34.2392 34.8104 31.7092 31.3119 31.3655V37.498H30.7683H30.7543Z" fill="#292929"/>
</g>
</svg>
