<svg width="58" height="57" viewBox="0 0 58 57" fill="none" xmlns="http://www.w3.org/2000/svg">
<g id="Frame 1500">
<path id="Ellipse 93 (Stroke)" fill-rule="evenodd" clip-rule="evenodd" d="M28.8767 55C43.7332 55 55.7534 43.1228 55.7534 28.5C55.7534 13.8772 43.7332 2 28.8767 2C14.0202 2 2 13.8772 2 28.5C2 43.1228 14.0202 55 28.8767 55ZM28.8767 56C44.2726 56 56.7534 43.6878 56.7534 28.5C56.7534 13.3122 44.2726 1 28.8767 1C13.4808 1 1 13.3122 1 28.5C1 43.6878 13.4808 56 28.8767 56Z" fill="#292929" stroke="black"/>
<g id="youtube">
<mask id="path-2-inside-1_877_40" fill="white">
<path fill-rule="evenodd" clip-rule="evenodd" d="M39.3021 19.3535C40.5217 19.6973 41.3929 20.5566 41.7413 21.7598C42.4382 23.9941 42.4382 28.4629 42.4382 28.4629C42.4382 28.4629 42.4383 32.9316 41.9156 35.166C41.5671 36.3691 40.6959 37.2285 39.4763 37.5723C37.2113 38.0879 28.4999 38.0879 28.4999 38.0879C28.4999 38.0879 19.6142 38.0879 17.5234 37.5723C16.3038 37.2285 15.4327 36.3691 15.0842 35.166C14.5615 32.9316 14.5615 28.4629 14.5615 28.4629C14.5615 28.4629 14.5615 23.9941 14.91 21.7598C15.2584 20.5566 16.1296 19.6973 17.3492 19.3535C19.6142 18.8379 28.3256 18.8379 28.3256 18.8379C28.3256 18.8379 37.2114 18.8379 39.3021 19.3535ZM25.7122 24.3379L33.0299 28.4629L25.7122 32.5879V24.3379Z"/>
</mask>
<path fill-rule="evenodd" clip-rule="evenodd" d="M39.3021 19.3535C40.5217 19.6973 41.3929 20.5566 41.7413 21.7598C42.4382 23.9941 42.4382 28.4629 42.4382 28.4629C42.4382 28.4629 42.4383 32.9316 41.9156 35.166C41.5671 36.3691 40.6959 37.2285 39.4763 37.5723C37.2113 38.0879 28.4999 38.0879 28.4999 38.0879C28.4999 38.0879 19.6142 38.0879 17.5234 37.5723C16.3038 37.2285 15.4327 36.3691 15.0842 35.166C14.5615 32.9316 14.5615 28.4629 14.5615 28.4629C14.5615 28.4629 14.5615 23.9941 14.91 21.7598C15.2584 20.5566 16.1296 19.6973 17.3492 19.3535C19.6142 18.8379 28.3256 18.8379 28.3256 18.8379C28.3256 18.8379 37.2114 18.8379 39.3021 19.3535ZM25.7122 24.3379L33.0299 28.4629L25.7122 32.5879V24.3379Z" fill="#292929"/>
<path d="M33.0299 28.4629L39.4136 39.7875L59.5033 28.4629L39.4136 17.1382L33.0299 28.4629ZM25.7122 24.3379L32.096 13.0132L12.7122 2.08652V24.3379H25.7122ZM25.7122 32.5879H12.7122V54.8393L32.096 43.9125L25.7122 32.5879ZM39.3021 19.3535L42.8288 6.84102L42.6228 6.78295L42.4149 6.73169L39.3021 19.3535ZM41.7413 21.7598L29.2545 25.3763L29.2915 25.5039L29.331 25.6306L41.7413 21.7598ZM42.4382 28.4629L29.4382 28.4629V28.4629L42.4382 28.4629ZM41.9156 35.166L54.4024 38.7826L54.4967 38.4571L54.5738 38.1272L41.9156 35.166ZM39.4763 37.5723L42.3619 50.248L42.6846 50.1745L43.003 50.0848L39.4763 37.5723ZM28.4999 38.0879L28.4999 51.0879H28.4999L28.4999 38.0879ZM17.5234 37.5723L13.9967 50.0848L14.2028 50.1428L14.4106 50.1941L17.5234 37.5723ZM15.0842 35.166L2.42596 38.1272L2.50313 38.4571L2.59739 38.7825L15.0842 35.166ZM14.5615 28.4629L27.5615 28.4629L14.5615 28.4629ZM14.91 21.7598L2.42316 18.1432L2.19282 18.9385L2.06524 19.7566L14.91 21.7598ZM17.3492 19.3535L14.4636 6.67783L14.141 6.75127L13.8225 6.84102L17.3492 19.3535ZM28.3256 18.8379V31.8379V18.8379ZM39.4136 17.1382L32.096 13.0132L19.3284 35.6625L26.6461 39.7875L39.4136 17.1382ZM12.7122 24.3379V32.5879H38.7122V24.3379H12.7122ZM32.096 43.9125L39.4136 39.7875L26.6461 17.1382L19.3284 21.2632L32.096 43.9125ZM35.7754 31.866C34.4079 31.4806 32.9648 30.7183 31.7187 29.489C30.4698 28.257 29.6668 26.7998 29.2545 25.3763L54.2281 18.1432C52.6126 12.5652 48.31 8.38591 42.8288 6.84102L35.7754 31.866ZM29.331 25.6306C29.1885 25.1738 29.2019 25.0459 29.2588 25.4722C29.3035 25.8062 29.3447 26.2507 29.3763 26.7586C29.4071 27.2509 29.4231 27.7078 29.4311 28.0415C29.435 28.2051 29.4368 28.3307 29.4376 28.4063C29.438 28.4439 29.4382 28.4685 29.4382 28.4786C29.4383 28.4836 29.4383 28.485 29.4383 28.4824C29.4383 28.4811 29.4382 28.4789 29.4382 28.4756C29.4382 28.474 29.4382 28.4721 29.4382 28.47C29.4382 28.469 29.4382 28.4678 29.4382 28.4666C29.4382 28.466 29.4382 28.4651 29.4382 28.4648C29.4382 28.4638 29.4382 28.4629 42.4382 28.4629C55.4382 28.4629 55.4382 28.4619 55.4382 28.4609C55.4382 28.4605 55.4382 28.4595 55.4382 28.4587C55.4382 28.4573 55.4382 28.4557 55.4382 28.4541C55.4382 28.4509 55.4382 28.4474 55.4382 28.4436C55.4382 28.4361 55.4382 28.4274 55.4382 28.4176C55.4381 28.398 55.438 28.374 55.4379 28.3457C55.4376 28.2892 55.4371 28.2157 55.4361 28.1267C55.4342 27.9492 55.4306 27.7083 55.4236 27.4179C55.4098 26.8439 55.3823 26.044 55.3259 25.1399C55.2387 23.7415 55.0145 20.6551 54.1517 17.8889L29.331 25.6306ZM42.4382 28.4629C29.4382 28.4629 29.4382 28.4622 29.4382 28.4615C29.4382 28.4613 29.4382 28.4606 29.4382 28.4602C29.4382 28.4593 29.4382 28.4585 29.4382 28.4578C29.4382 28.4563 29.4382 28.4551 29.4382 28.4542C29.4382 28.4523 29.4382 28.4514 29.4382 28.4515C29.4382 28.4517 29.4382 28.4559 29.4382 28.4638C29.4381 28.4797 29.438 28.5104 29.4376 28.5545C29.4369 28.6428 29.4354 28.7828 29.4322 28.9622C29.4256 29.326 29.4125 29.8256 29.3871 30.3691C29.3212 31.7787 29.2176 32.3747 29.2573 32.2049L54.5738 38.1272C55.1362 35.723 55.294 32.9674 55.3587 31.5841C55.3986 30.7311 55.4182 29.9738 55.428 29.4299C55.4329 29.1554 55.4355 28.9288 55.4368 28.7641C55.4375 28.6816 55.4378 28.6141 55.438 28.5634C55.4381 28.5381 55.4382 28.5169 55.4382 28.5001C55.4382 28.4916 55.4382 28.4843 55.4382 28.4781C55.4382 28.475 55.4382 28.4722 55.4382 28.4696C55.4382 28.4684 55.4382 28.4671 55.4382 28.466C55.4382 28.4655 55.4382 28.4647 55.4382 28.4644C55.4382 28.4636 55.4382 28.4628 42.4382 28.4629ZM29.4288 31.5495C29.8411 30.1258 30.6442 28.6685 31.8931 27.4366C33.1391 26.2074 34.5822 25.4452 35.9496 25.0598L43.003 50.0848C48.4838 48.54 52.7867 44.3609 54.4024 38.7826L29.4288 31.5495ZM36.5907 24.8966C37.1722 24.7642 37.1788 24.82 35.977 24.8968C35.0725 24.9546 33.9526 24.9977 32.7984 25.0279C31.6618 25.0577 30.5784 25.0728 29.7735 25.0804C29.3733 25.0842 29.0474 25.0861 28.8247 25.087C28.7134 25.0875 28.6283 25.0877 28.5728 25.0878C28.5451 25.0878 28.5249 25.0879 28.5126 25.0879C28.5064 25.0879 28.5022 25.0879 28.5001 25.0879C28.499 25.0879 28.4985 25.0879 28.4984 25.0879C28.4984 25.0879 28.4985 25.0879 28.4988 25.0879C28.4989 25.0879 28.4992 25.0879 28.4992 25.0879C28.4995 25.0879 28.4999 25.0879 28.4999 38.0879C28.4999 51.0879 28.5003 51.0879 28.5007 51.0879C28.5009 51.0879 28.5014 51.0879 28.5018 51.0879C28.5026 51.0879 28.5035 51.0879 28.5045 51.0879C28.5066 51.0879 28.5092 51.0879 28.5123 51.0879C28.5186 51.0879 28.5269 51.0879 28.5373 51.0879C28.5581 51.0879 28.587 51.0878 28.6237 51.0877C28.697 51.0876 28.8012 51.0873 28.9326 51.0868C29.1951 51.0857 29.5674 51.0835 30.0194 51.0793C30.9187 51.0708 32.1546 51.0537 33.4791 51.019C34.7859 50.9848 36.2684 50.9312 37.6344 50.8439C38.703 50.7757 40.648 50.6381 42.3619 50.248L36.5907 24.8966ZM28.4999 38.0879C28.4999 25.0879 28.5002 25.0879 28.5005 25.0879C28.5006 25.0879 28.5008 25.0879 28.501 25.0879C28.5012 25.0879 28.5013 25.0879 28.5012 25.0879C28.5012 25.0879 28.5005 25.0879 28.4994 25.0879C28.4972 25.0879 28.4928 25.0879 28.4865 25.0879C28.4737 25.0879 28.4529 25.0878 28.4245 25.0878C28.3677 25.0877 28.2806 25.0875 28.167 25.087C27.9395 25.0861 27.6071 25.0842 27.1998 25.0804C26.3805 25.0728 25.2805 25.0576 24.1331 25.0278C22.9663 24.9975 21.8454 24.9545 20.9552 24.8972C19.6926 24.816 19.8685 24.7611 20.6362 24.9504L14.4106 50.1941C16.2237 50.6412 18.2944 50.7797 19.2859 50.8435C20.6498 50.9313 22.1423 50.9849 23.4583 51.0191C24.7936 51.0537 26.0457 51.0708 26.9578 51.0793C27.4162 51.0835 27.7944 51.0857 28.061 51.0868C28.1944 51.0873 28.3003 51.0876 28.3746 51.0877C28.4118 51.0878 28.4412 51.0879 28.4622 51.0879C28.4727 51.0879 28.4812 51.0879 28.4875 51.0879C28.4906 51.0879 28.4932 51.0879 28.4953 51.0879C28.4963 51.0879 28.4972 51.0879 28.498 51.0879C28.4984 51.0879 28.4988 51.0879 28.499 51.0879C28.4995 51.0879 28.4999 51.0879 28.4999 38.0879ZM21.0501 25.0598C22.4176 25.4452 23.8607 26.2075 25.1068 27.4367C26.3557 28.6687 27.1588 30.126 27.571 31.5495L2.59739 38.7825C4.21295 44.3606 8.51561 48.5399 13.9967 50.0848L21.0501 25.0598ZM27.7425 32.2049C27.7822 32.3746 27.6786 31.7786 27.6127 30.369C27.5872 29.8255 27.5741 29.3259 27.5676 28.9621C27.5644 28.7828 27.5628 28.6428 27.5621 28.5544C27.5618 28.5104 27.5616 28.4796 27.5616 28.4638C27.5615 28.4558 27.5615 28.4517 27.5615 28.4514C27.5615 28.4513 27.5615 28.4522 27.5615 28.4541C27.5615 28.4551 27.5615 28.4563 27.5615 28.4577C27.5615 28.4585 27.5615 28.4592 27.5615 28.4601C27.5615 28.4605 27.5615 28.4612 27.5615 28.4614C27.5615 28.4622 27.5615 28.4629 14.5615 28.4629C1.56152 28.4629 1.56152 28.4637 1.56152 28.4644C1.56152 28.4647 1.56152 28.4655 1.56152 28.4661C1.56152 28.4672 1.56152 28.4684 1.56153 28.4697C1.56153 28.4722 1.56153 28.4751 1.56153 28.4782C1.56154 28.4844 1.56155 28.4917 1.56156 28.5001C1.56159 28.5169 1.56165 28.5381 1.56175 28.5635C1.56194 28.6142 1.5623 28.6816 1.56297 28.7641C1.5643 28.9289 1.56686 29.1555 1.5718 29.4299C1.58158 29.9739 1.60116 30.7311 1.64107 31.5841C1.70579 32.9675 1.86355 35.723 2.42596 38.1272L27.7425 32.2049ZM14.5615 28.4629C27.5615 28.4629 27.5615 28.4634 27.5615 28.4638C27.5615 28.464 27.5615 28.4644 27.5615 28.4647C27.5615 28.4652 27.5615 28.4657 27.5615 28.466C27.5615 28.4668 27.5615 28.4674 27.5615 28.4676C27.5615 28.4682 27.5615 28.4677 27.5615 28.4662C27.5615 28.4632 27.5615 28.4562 27.5616 28.4454C27.5616 28.4237 27.5617 28.3869 27.562 28.3364C27.5626 28.2353 27.5637 28.0809 27.566 27.8857C27.5708 27.4919 27.5802 26.9494 27.5988 26.3545C27.6176 25.7514 27.6442 25.1468 27.6796 24.6167C27.6971 24.3543 27.7149 24.1394 27.7314 23.9732C27.7488 23.7976 27.759 23.7352 27.7547 23.7629L2.06524 19.7566C1.75324 21.7572 1.65445 24.1635 1.6114 25.5439C1.5864 26.3455 1.57407 27.0599 1.5679 27.5738C1.5648 27.8325 1.56321 28.0446 1.56239 28.1966C1.56198 28.2727 1.56177 28.3341 1.56165 28.3789C1.56159 28.4014 1.56156 28.4197 1.56154 28.4338C1.56154 28.4408 1.56153 28.4468 1.56153 28.4516C1.56153 28.4541 1.56152 28.4562 1.56152 28.4581C1.56152 28.459 1.56152 28.4599 1.56152 28.4607C1.56152 28.4611 1.56152 28.4617 1.56152 28.4619C1.56152 28.4624 1.56152 28.4629 14.5615 28.4629ZM27.3968 25.3763C26.9845 26.7999 26.1814 28.2571 24.9325 29.4891C23.6865 30.7183 22.2434 31.4806 20.8759 31.866L13.8225 6.84102C8.34151 8.38586 4.03875 12.5651 2.42316 18.1432L27.3968 25.3763ZM20.2348 32.0292C19.6533 32.1616 19.6467 32.1057 20.8485 32.029C21.753 31.9712 22.8729 31.9281 24.0271 31.8979C25.1637 31.8681 26.2471 31.853 27.052 31.8454C27.4522 31.8416 27.7781 31.8397 28.0009 31.8388C28.1121 31.8383 28.1973 31.8381 28.2527 31.838C28.2804 31.8379 28.3006 31.8379 28.3129 31.8379C28.3191 31.8379 28.3233 31.8379 28.3254 31.8379C28.3265 31.8379 28.327 31.8379 28.3271 31.8379C28.3271 31.8379 28.327 31.8379 28.3268 31.8379C28.3266 31.8379 28.3264 31.8379 28.3263 31.8379C28.326 31.8379 28.3256 31.8379 28.3256 18.8379C28.3256 5.83789 28.3252 5.83789 28.3248 5.83789C28.3246 5.83789 28.3241 5.83789 28.3237 5.83789C28.323 5.83789 28.3221 5.83789 28.321 5.83789C28.319 5.83789 28.3164 5.83789 28.3132 5.83789C28.307 5.8379 28.2986 5.8379 28.2882 5.83791C28.2674 5.83793 28.2385 5.83797 28.2018 5.83804C28.1285 5.83818 28.0243 5.83846 27.8929 5.83901C27.6304 5.8401 27.2581 5.84226 26.8062 5.84653C25.9069 5.85503 24.6709 5.87211 23.3464 5.9068C22.0397 5.94102 20.5571 5.99461 19.1911 6.08186C18.1225 6.15012 16.1776 6.28764 14.4636 6.67783L20.2348 32.0292ZM28.3256 18.8379C28.3256 31.8379 28.3253 31.8379 28.325 31.8379C28.3249 31.8379 28.3247 31.8379 28.3246 31.8379C28.3243 31.8379 28.3243 31.8379 28.3243 31.8379C28.3244 31.8379 28.325 31.8379 28.3261 31.8379C28.3284 31.8379 28.3327 31.8379 28.3391 31.8379C28.3518 31.8379 28.3726 31.8379 28.401 31.838C28.4578 31.8381 28.5449 31.8383 28.6585 31.8388C28.886 31.8397 29.2184 31.8416 29.6257 31.8454C30.445 31.853 31.545 31.8682 32.6925 31.898C33.8593 31.9283 34.9802 31.9713 35.8704 32.0286C37.1329 32.1098 36.957 32.1647 36.1893 31.9753L42.4149 6.73169C40.6018 6.28455 38.5312 6.14603 37.5397 6.08224C36.1758 5.99449 34.6832 5.94088 33.3672 5.90672C32.0319 5.87206 30.7798 5.855 29.8677 5.84651C29.4093 5.84224 29.0311 5.84009 28.7645 5.83901C28.6311 5.83846 28.5253 5.83818 28.4509 5.83804C28.4137 5.83797 28.3843 5.83793 28.3633 5.83791C28.3528 5.8379 28.3444 5.8379 28.3381 5.83789C28.3349 5.83789 28.3323 5.83789 28.3302 5.83789C28.3292 5.83789 28.3283 5.83789 28.3275 5.83789C28.3271 5.83789 28.3267 5.83789 28.3265 5.83789C28.326 5.83789 28.3256 5.83789 28.3256 18.8379Z" fill="#292929" mask="url(#path-2-inside-1_877_40)"/>
</g>
</g>
</svg>
